HIERARCHY
ROOT Hips
{
	OFFSET 0.000000 0.000000 0.000000
	CHANNELS 6 Xposition Yposition Zposition Zrotation Yrotation Xrotation 
	JOINT LHipJoint
	{
		OFFSET 0.000000 0.000000 0.000000
		CHANNELS 3 Zrotation Yrotation Xrotation
		JOINT LeftUpLeg
		{
			OFFSET 1.363060 -1.794630 0.839290
			CHANNELS 3 Zrotation Yrotation Xrotation
			JOINT LeftLeg
			{
				OFFSET 2.448110 -6.726130 0.000000
				CHANNELS 3 Zrotation Yrotation Xrotation
				JOINT LeftFoot
				{
					OFFSET 2.562200 -7.039590 0.000000
					CHANNELS 3 Zrotation Yrotation Xrotation
					JOINT LeftToeBase
					{
						OFFSET 0.157640 -0.433110 2.322550
						CHANNELS 3 Zrotation Yrotation Xrotation
						End Site
						{
							OFFSET 0.000000 0.000000 0.000000
						}
					}
				}
			}
		}
	}
	JOINT RHipJoint
	{
		OFFSET 0.000000 0.000000 0.000000
		CHANNELS 3 Zrotation Yrotation Xrotation
		JOINT RightUpLeg
		{
			OFFSET -1.305520 -1.794630 0.839290
			CHANNELS 3 Zrotation Yrotation Xrotation
			JOINT RightLeg
			{
				OFFSET -2.542530 -6.985550 0.000000
				CHANNELS 3 Zrotation Yrotation Xrotation
				JOINT RightFoot
				{
					OFFSET -2.568260 -7.056230 0.000000
					CHANNELS 3 Zrotation Yrotation Xrotation
					JOINT RightToeBase
					{
						OFFSET -0.164730 -0.452590 2.363150
						CHANNELS 3 Zrotation Yrotation Xrotation
						End Site
						{
							OFFSET 0.000000 0.000000 0.000000
						}
					}
				}
			}
		}
	}
	JOINT LowerBack
	{
		OFFSET 0.000000 0.000000 0.000000
		CHANNELS 3 Zrotation Yrotation Xrotation
		JOINT Spine
		{
			OFFSET 0.028270 2.035590 -0.193380
			CHANNELS 3 Zrotation Yrotation Xrotation
			JOINT Spine1
			{
				OFFSET 0.056720 2.048850 -0.042750
				CHANNELS 3 Zrotation Yrotation Xrotation
				JOINT Neck
				{
					OFFSET 0.000000 0.000000 0.000000
					CHANNELS 3 Zrotation Yrotation Xrotation
					JOINT Neck1
					{
						OFFSET -0.054170 1.746240 0.172020
						CHANNELS 3 Zrotation Yrotation Xrotation
						JOINT Head
						{
							OFFSET 0.104070 1.761360 -0.123970
							CHANNELS 3 Zrotation Yrotation Xrotation
							End Site
							{
								OFFSET 0.000000 0.000000 0.000000
							}
						}
					}
				}
				JOINT LeftShoulder
				{
					OFFSET 0.000000 0.000000 0.000000
					CHANNELS 3 Zrotation Yrotation Xrotation
					JOINT LeftArm
					{
						OFFSET 3.362410 1.200890 -0.311210
						CHANNELS 3 Zrotation Yrotation Xrotation
						JOINT LeftForeArm
						{
							OFFSET 4.983000 -0.000000 -0.000000
							CHANNELS 3 Zrotation Yrotation Xrotation
							JOINT LeftHand
							{
								OFFSET 3.483560 -0.000000 -0.000000
								CHANNELS 3 Zrotation Yrotation Xrotation
								JOINT LeftFingerBase
								{
									OFFSET 0.000000 0.000000 0.000000
									CHANNELS 3 Zrotation Yrotation Xrotation
									JOINT LeftHandIndex1
									{
										OFFSET 0.715260 -0.000000 -0.000000
										CHANNELS 3 Zrotation Yrotation Xrotation
										End Site
										{
											OFFSET 0.000000 0.000000 0.000000
										}
									}
								}
								JOINT LThumb
								{
									OFFSET 0.000000 0.000000 0.000000
									CHANNELS 3 Zrotation Yrotation Xrotation
									End Site
									{
										OFFSET 0.000000 0.000000 0.000000
									}
								}
							}
						}
					}
				}
				JOINT RightShoulder
				{
					OFFSET 0.000000 0.000000 0.000000
					CHANNELS 3 Zrotation Yrotation Xrotation
					JOINT RightArm
					{
						OFFSET -3.136600 1.374050 -0.404650
						CHANNELS 3 Zrotation Yrotation Xrotation
						JOINT RightForeArm
						{
							OFFSET -5.241900 -0.000000 -0.000000
							CHANNELS 3 Zrotation Yrotation Xrotation
							JOINT RightHand
							{
								OFFSET -3.444170 -0.000000 -0.000000
								CHANNELS 3 Zrotation Yrotation Xrotation
								JOINT RightFingerBase
								{
									OFFSET 0.000000 0.000000 0.000000
									CHANNELS 3 Zrotation Yrotation Xrotation
									JOINT RightHandIndex1
									{
										OFFSET -0.622530 -0.000000 -0.000000
										CHANNELS 3 Zrotation Yrotation Xrotation
										End Site
										{
											OFFSET 0.000000 0.000000 0.000000
										}
									}
								}
								JOINT RThumb
								{
									OFFSET 0.000000 0.000000 0.000000
									CHANNELS 3 Zrotation Yrotation Xrotation
									End Site
									{
										OFFSET 0.000000 0.000000 0.000000
									}
								}
							}
						}
					}
				}
			}
		}
	}
}
MOTION
Frames: 7
Frame Time: 0.008333
-19.536969 16.726551 -0.442058 21.669768 85.845835 49.159033 -8.442076 0.644049 5.888612 -11.915108 -9.160976 -55.684051 -2.614553 0.450639 25.914184 0.902638 3.288695 -4.821063 0.618000 0.000001 -20.999800 11.206827 -4.880496 1.482669 4.052357 -4.731935 -5.347231 0.927423 -1.376071 17.745223 0.134836 10.464418 26.208311 5.675300 -0.000000 -86.738200 -7.291182 0.134430 -7.946776 -2.263778 0.471596 -4.016787 -5.280269 0.438445 2.081385 10.453309 -6.730812 -8.861562 -1.980476 -0.126983 -0.431384 0.000000 0.000000 0.000000 1.240666 18.441746 3.888206 -39.701711 8.485345 -30.443629 -1.191895 -67.537610 -0.051311 14.653711 0.957100 0.101321 -0.285337 0.195003 0.000000 0.000000 0.000000 0.000000 0.000000 0.000000 0.000000 8.108557 -0.251009 -0.278003 46.776344 39.404301 13.604379 179.867700 81.612882 179.976444 -2.788787 6.057507 -0.163474 0.035143 -0.610098 -0.000000 0.000000 0.000000 0.000000 0.000000 0.000000 0.000000 
-19.344288 16.695239 -0.445924 21.259382 85.755509 48.531877 -8.459746 0.623316 5.798611 -11.995957 -9.194369 -55.819362 -2.405266 0.656819 28.300806 1.019952 3.754830 -5.345174 0.591300 0.000000 -19.351800 11.329404 -4.921699 1.462145 3.613370 -5.257166 -5.546074 0.833017 -1.459381 19.091999 0.068773 11.552508 27.498663 6.520300 0.000000 -85.887399 -7.640730 0.096246 -7.913044 -2.336935 0.463405 -4.004329 -5.301626 0.430090 2.105221 10.808287 -6.807777 -8.856648 -1.943196 -0.124021 -0.431347 0.000000 0.000000 0.000000 1.196039 18.518053 3.873473 -39.975914 8.672032 -30.353312 -1.210612 -67.244431 -0.050371 14.707999 0.954119 0.101810 -0.282843 0.190724 0.000000 0.000000 0.000000 0.000000 0.000000 0.000000 0.000000 8.260722 -0.327886 -0.246397 47.052522 39.299868 14.142341 179.839655 81.217296 179.978944 -2.526453 6.090041 -0.148865 0.033416 -0.613050 -0.000000 0.000000 0.000000 0.000000 0.000000 0.000000 0.000000 
-19.153324 16.667356 -0.449899 20.923995 85.665261 47.989719 -8.470506 0.601620 5.705243 -12.127918 -9.172957 -55.844960 -2.232423 0.823696 30.481394 1.140604 4.181017 -6.114717 0.525800 0.000000 -17.992600 11.449985 -4.947660 1.443422 3.190552 -5.772318 -5.866896 0.733567 -1.538725 20.599126 -0.013999 12.548476 28.805507 7.355800 -0.000000 -84.431000 -7.971192 0.061726 -7.874631 -2.406203 0.458041 -3.991431 -5.323445 0.424936 2.126347 11.139900 -6.889245 -8.846538 -1.908951 -0.121337 -0.430186 0.000000 0.000000 0.000000 1.116390 18.576239 3.852621 -40.280491 8.752993 -30.230806 -1.234794 -66.864303 -0.049391 14.755114 0.970069 0.104796 -0.279731 0.186065 0.000000 0.000000 0.000000 0.000000 0.000000 0.000000 0.000000 8.404950 -0.415294 -0.216137 47.388594 39.168536 14.705027 179.811136 80.892763 179.981566 -2.255786 6.113914 -0.133458 0.031531 -0.615163 -0.000000 0.000000 0.000000 0.000000 0.000000 0.000000 0.000000 
-18.964632 16.643635 -0.454101 20.604498 85.568210 47.473716 -8.475312 0.583675 5.610919 -12.305322 -9.098885 -55.744319 -2.100537 0.952177 32.407656 1.260989 4.552783 -7.105704 0.419700 -0.000000 -16.971600 11.566548 -4.956893 1.425945 2.788030 -6.270059 -6.307578 0.630518 -1.613559 22.257750 -0.112607 13.371303 30.096260 8.122300 0.000000 -82.355100 -8.280593 0.032117 -7.833629 -2.470819 0.456473 -3.978263 -5.344723 0.423807 2.146047 11.446000 -6.974091 -8.831290 -1.877981 -0.118960 -0.427796 0.000000 0.000000 0.000000 1.007264 18.621452 3.824823 -40.631741 8.724516 -30.078932 -1.264091 -66.394388 -0.048444 14.805516 1.011497 0.111278 -0.276041 0.181067 0.000000 0.000000 0.000000 0.000000 0.000000 0.000000 0.000000 8.541222 -0.512089 -0.188382 47.780875 39.013826 15.294575 179.783341 80.647141 179.984262 -1.981426 6.127552 -0.117451 0.029547 -0.616310 -0.000000 0.000000 0.000000 0.000000 0.000000 0.000000 0.000000 
-18.777645 16.624641 -0.458890 20.206751 85.457528 46.888372 -8.479124 0.572472 5.517016 -12.516065 -8.969605 -55.509968 -2.009572 1.045563 34.053522 1.377656 4.858224 -8.275993 0.275400 -0.000000 -16.302700 11.672628 -4.949530 1.409799 2.416368 -6.736865 -6.856243 0.525575 -1.683812 24.047101 -0.224869 13.922525 31.327071 8.740100 -0.000000 -79.701200 -8.562294 0.008884 -7.792369 -2.529038 0.459434 -3.965433 -5.364734 0.427212 2.164186 11.723548 -7.060397 -8.809536 -1.850658 -0.116958 -0.423573 0.000000 0.000000 0.000000 0.866335 18.651244 3.789787 -41.037396 8.604263 -29.897817 -1.297450 -65.848259 -0.047578 14.868924 1.087433 0.122456 -0.271860 0.175658 0.000000 0.000000 0.000000 0.000000 0.000000 0.000000 0.000000 8.668868 -0.615280 -0.163182 48.221162 38.840158 15.914029 179.757325 80.487242 179.986975 -1.708565 6.129377 -0.101246 0.027568 -0.616374 -0.000000 0.000000 0.000000 0.000000 0.000000 0.000000 0.000000 
-18.592810 16.610762 -0.464343 19.748384 85.329011 46.245454 -8.481337 0.570804 5.423843 -12.757259 -8.792123 -55.130226 -1.956917 1.106400 35.402818 1.488604 5.098021 -9.565394 0.100601 0.000000 -15.973200 11.769520 -4.925385 1.392306 2.070238 -7.176473 -7.498635 0.420005 -1.750831 25.945777 -0.348548 14.115652 32.445358 9.129100 -0.000000 -76.592700 -8.818664 -0.009287 -7.748814 -2.580934 0.465857 -3.951700 -5.382127 0.434038 2.183719 11.973900 -7.147365 -8.782309 -1.827028 -0.115318 -0.417774 0.000000 0.000000 0.000000 0.705074 18.678405 3.746862 -41.513434 8.384186 -29.683436 -1.334315 -65.227824 -0.046844 14.951078 1.198061 0.138533 -0.267249 0.170021 0.000000 0.000000 0.000000 0.000000 0.000000 0.000000 0.000000 8.791787 -0.725047 -0.141793 48.695801 38.655584 16.562202 179.734650 80.418120 179.989640 -1.442744 6.119162 -0.085242 0.025647 -0.615278 -0.000000 0.000000 0.000000 0.000000 0.000000 0.000000 0.000000 
-18.409508 16.602156 -0.471179 19.076418 85.179950 45.390325 -8.493657 0.577564 5.332227 -13.002159 -8.558949 -54.617023 -1.935473 1.140297 36.465357 1.590558 5.268706 -10.907252 -0.094100 0.000000 -15.953200 11.843467 -4.887401 1.374712 1.773981 -7.564602 -8.210352 0.314474 -1.815263 27.915207 -0.481028 13.847965 33.395346 9.195300 0.000000 -73.223800 -9.034844 -0.020449 -7.706171 -2.622915 0.476247 -3.937311 -5.395519 0.444525 2.206418 12.193669 -7.231435 -8.749624 -1.806853 -0.114039 -0.410127 0.000000 0.000000 0.000000 0.521180 18.713013 3.695545 -42.068163 8.070321 -29.428930 -1.373845 -64.548106 -0.046239 15.053256 1.341847 0.159505 -0.262325 0.164223 0.000000 0.000000 0.000000 0.000000 0.000000 0.000000 0.000000 8.905560 -0.836550 -0.125488 49.187766 38.464178 17.236982 179.716303 80.440803 179.992199 -1.188824 6.097182 -0.069942 0.023818 -0.612949 -0.000000 0.000000 0.000000 0.000000 0.000000 0.000000 0.000000 
